<svg width="15" height="15" viewBox="0 0 15 15" fill="none" xmlns="http://www.w3.org/2000/svg">
<circle cx="7.5" cy="7.5" r="7" fill="white" stroke="#49A4C8"/>
<path d="M3.124 4.416C4.516 4.416 4.984 5.292 4.984 6.444V8.148H7.396V5.388H5.824V4.536H9.604V5.388H8.368V12H7.396V9H4.984V9.444C4.984 9.972 4.708 10.188 4.396 10.188C3.784 10.188 2.968 9.276 2.968 8.664C2.968 8.376 3.16 8.148 3.688 8.148H4.036V6.564C4.036 5.664 3.796 5.196 3.16 5.196C2.716 5.196 2.464 5.448 2.464 5.82C2.464 6.276 2.8 6.504 3.508 6.588L3.412 7.368C2.332 7.296 1.552 6.744 1.552 5.796C1.552 4.884 2.212 4.416 3.124 4.416Z" fill="#003463"/>
<path d="M8.2523 8.029V7.391H9.4953C9.7373 7.391 9.94996 7.35067 10.1333 7.27C10.3166 7.18933 10.4596 7.07567 10.5623 6.929C10.665 6.775 10.7163 6.59167 10.7163 6.379C10.7163 6.05633 10.6026 5.807 10.3753 5.631C10.148 5.455 9.85463 5.367 9.4953 5.367H8.5603V10.933H9.6383C9.93163 10.933 10.192 10.8853 10.4193 10.79C10.6466 10.6947 10.8263 10.5517 10.9583 10.361C11.0903 10.1703 11.1563 9.932 11.1563 9.646C11.1563 9.44067 11.116 9.261 11.0353 9.107C10.962 8.94567 10.8556 8.81367 10.7163 8.711C10.5843 8.601 10.4266 8.524 10.2433 8.48C10.06 8.42867 9.8583 8.403 9.6383 8.403H8.2523V7.688H9.7153C10.0893 7.688 10.4413 7.72833 10.7713 7.809C11.1013 7.88967 11.3946 8.01433 11.6513 8.183C11.9153 8.35167 12.1206 8.568 12.2673 8.832C12.414 9.096 12.4873 9.41133 12.4873 9.778C12.4873 10.284 12.3663 10.702 12.1243 11.032C11.8896 11.362 11.5633 11.6077 11.1453 11.769C10.7346 11.923 10.258 12 9.7153 12H7.2623V4.3H9.5833C10.0673 4.3 10.4926 4.36967 10.8593 4.509C11.2333 4.64833 11.523 4.861 11.7283 5.147C11.941 5.433 12.0473 5.796 12.0473 6.236C12.0473 6.61733 11.941 6.94367 11.7283 7.215C11.523 7.479 11.2333 7.68067 10.8593 7.82C10.4926 7.95933 10.0673 8.029 9.5833 8.029H8.2523Z" fill="#ED7D13"/>
</svg>
